<svg version="1.2" xmlns="http://www.w3.org/2000/svg" viewBox="0 0 417 177" width="417" height="177">
	<title>get-it-on-ego</title>
	<style>
		.s0 { fill: #ffffff } 
		.s1 { fill: none;stroke: #a6a6a6;stroke-width: .8 } 
		.s2 { fill: #4a86cf } 
		.s3 { fill: #7b7979 } 
		.s4 { fill: #000000 } 
	</style>
	<path class="s0" d="m404 176h-391c-6.6 0-12-5.4-12-12v-151c0-6.6 5.4-12 12-12h391c6.6 0 12 5.4 12 12v151c0 6.6-5.4 12-12 12z"/>
	<path class="s1" d="m404 176h-391c-6.6 0-12-5.4-12-12v-151c0-6.6 5.4-12 12-12h391c6.6 0 12 5.4 12 12v151c0 6.6-5.4 12-12 12z"/>
	<path class="s2" d="m124.3 25.6c-25.9 0-30.8 37-16.2 37 14.6 0 42.2-37 16.2-37zm-43.1 32.4c7.8 0.5 16.3-29.7 1.7-27.8-14.6 1.9-9.5 27.3-1.7 27.8zm-35.6 18.7c5.5-2.4 0.7-26.2-8.7-19.7-9.4 6.5 3.2 22.2 8.7 19.7zm15.6-12.4c6.6-1.3 6.9-28.3-4.8-23.5-11.7 4.8-1.8 24.8 4.8 23.5zm34.3 60.4c1.2 8.9-6.5 13.3-14.1 7.6-24-18.3 39.8-27.4 35.6-52.4-3.5-20.7-67.2-14.4-74.4 18.1-4.9 22 20.2 52.4 46.4 52.4 12.9 0 27.8-11.6 30.5-26.4 2.2-11.3-24.9-6.8-24 0.7z"/>
	<g>
		<path class="s3" d="m161.6 39c0-5.1 3.1-8.2 7.2-8.2 2.2 0 3.6 1 4.5 1.9l-1.1 1.3c-0.8-0.8-1.8-1.5-3.4-1.5-3.2 0-5.2 2.4-5.2 6.4 0 4 1.9 6.4 5.2 6.4 1.1 0 2.2-0.3 2.8-0.9v-4.1h-3.3v-1.7h5.2v6.6c-1 1.1-2.7 1.8-4.9 1.8-4.1 0.2-7-2.8-7-8zm14.5 2.1c0-3.8 2.6-6.1 5.2-6.1 3 0 4.7 2.1 4.7 5.5 0 0.4 0 0.8-0.1 1.1h-7.9c0.1 2.5 1.7 4.1 3.9 4.1 1.1 0 2-0.4 2.9-0.9l0.7 1.3c-1 0.7-2.3 1.2-3.9 1.2-3-0.1-5.5-2.4-5.5-6.2zm8.2-1c0-2.3-1.1-3.6-2.9-3.6-1.6 0-3.1 1.3-3.3 3.6zm4.7 3.2v-6.5h-1.7v-1.5l1.8-0.1 0.2-3.3h1.6v3.3h3.2v1.6h-3.2v6.5c0 1.4 0.5 2.3 1.8 2.3 0.4 0 0.9-0.2 1.3-0.3l0.4 1.5c-0.7 0.2-1.4 0.4-2.2 0.4-2.4 0-3.2-1.6-3.2-3.9zm12.2-11.7c0-0.8 0.6-1.3 1.4-1.3 0.8 0 1.4 0.5 1.4 1.3 0 0.7-0.6 1.3-1.4 1.3-0.8-0.1-1.4-0.6-1.4-1.3zm0.3 3.6h2v11.7h-2zm5.9 8.1v-6.5h-1.7v-1.5l1.8-0.1 0.2-3.3h1.6v3.3h3.2v1.6h-3.2v6.5c0 1.4 0.5 2.3 1.8 2.3 0.4 0 1-0.2 1.3-0.3l0.4 1.5c-0.7 0.2-1.4 0.4-2.2 0.4-2.3 0-3.2-1.6-3.2-3.9zm11.7-2.2c0-3.9 2.5-6.1 5.4-6.1 2.9 0 5.4 2.2 5.4 6.1 0 3.9-2.5 6.1-5.4 6.1-2.8 0-5.4-2.2-5.4-6.1zm8.8 0c0-2.7-1.4-4.5-3.4-4.5-2 0-3.4 1.8-3.4 4.5 0 2.7 1.4 4.5 3.4 4.5 2 0 3.4-1.8 3.4-4.5zm4.7-5.9h1.6l0.2 1.7h0.1c1.1-1.1 2.3-2 3.9-2 2.5 0 3.6 1.6 3.6 4.6v7.4h-2v-7.1c0-2.2-0.7-3.1-2.2-3.1-1.2 0-2 0.6-3.2 1.8v8.4h-2z"/>
		<g>
			<path class="s4" d="m258.3 68.2c-5.8 0.2-10.3 2.2-13.6 6-3.5 4-5.2 9.6-5.2 16.7 0 7.1 1.7 12.6 5.2 16.7 3.5 4 8.2 6 14.3 6 6.1 0 10.9-2 14.3-6 3.5-4 5.2-9.6 5.2-16.7 0-7.1-1.7-12.7-5.2-16.7-3.5-4-8.2-6-14.3-6zm0.4 8.2h0.3c3 0 5.3 1.3 7 3.8 1.6 2.5 2.5 6.1 2.5 10.8 0 4.6-0.8 8.2-2.5 10.7-1.6 2.5-4 3.8-7 3.8-3 0-5.3-1.3-6.9-3.8-1.6-2.5-2.5-6.1-2.5-10.7 0-4.6 0.8-8.2 2.5-10.8 1.6-2.4 3.8-3.7 6.6-3.8zm-65.4 33.2c-5.1 4.2-12.6 4.1-15.7 4.1-6.3 0-11.3-2-15-6.1-3.7-4.1-5.5-9.6-5.5-16.6 0-7.1 1.9-12.6 5.6-16.7 3.8-4.1 8.9-6.1 15.5-6.1 2.5 0 4.9 0.3 7.2 0.8 2.3 0.5 4.5 1.4 6.6 2.4l-2.6 7.6c-1.2-0.6-2.5-1.2-3.7-1.7-2.1-0.7-4.2-1-6.3-1-3.9 0-6.9 1.3-9 3.8-2.1 2.5-3.2 6.1-3.2 10.8 0 4.6 1 8.2 3.1 10.8 2 2.5 5.1 3.8 8.7 3.8 3.6 0 5.9-0.9 7.1-1.8v-7.6h-7.9v-7.6h15.3m6.5-19.5h6.2l19.5 26.4v-26.4h8.4v43.9h-6.2l-19.5-26.4v26.4h-8.4zm85 0h12.4l8.7 27.4 8.7-27.4h10.5l4.8 43.9h-9.3l-2.9-27.5-8.7 27.6h-6.2l-8.8-28.5-2.8 28.4h-9.3l4.8-43.9m49.8 0h26.5v8.6h-16.7v9h12.8v7.7h-12.8v10h17.2v8.6h-27z"/>
			<g>
				<path class="s4" d="m163.6 126.5h12.3v1.1h-11v8.2h10.2v1.1h-10.2v9.1h11v1.1h-12.3zm25.9 9.8l-6.6-9.8h1.5l5.8 8.8 6.1-8.8h1.4l-6.9 9.7 7.5 10.7h-1.5l-6.8-9.7-6.6 9.7h-1.4zm21.5-8.7h-7.2v-1.1h15.7v1.1h-7.2v19.3h-1.3zm15.5-1.1h12.3v1.1h-11v8.2h10.2v1.1h-10.2v9.1h11v1.1h-12.3zm19.5 0h1.5l13.2 18.8v-18.8h1.2v20.4h-1.5l-13.2-18.9v18.9h-1.2zm23.5 19.2l0.4-1c2.1 0.9 4.4 1.4 6.4 1.4 3.6 0 5.8-1.7 5.8-4.3 0-6.1-12.3-3.2-12.3-10.2 0-3.3 2.8-5.4 7.2-5.4 1.9 0 3.8 0.4 5.4 1.1l-0.4 1c-1.6-0.7-3.4-1.1-5.2-1.1-3.7 0-5.8 1.5-5.8 4.1 0 6.1 12.3 3.1 12.3 10.1 0 3.4-2.8 5.6-7.2 5.6-2.1 0.2-4.5-0.3-6.6-1.3zm21.2-19.2h1.2v20.4h-1.2zm9.3 10.4c0-6.2 3.8-10.5 9.5-10.5 5.6 0 9.3 4.1 9.3 10.3 0 6.3-3.8 10.5-9.5 10.5-5.6 0-9.3-4.2-9.3-10.3zm17.5 0c0-5.6-3.3-9.4-8.2-9.4-4.8 0-8 3.7-8 9.2 0 5.6 3.2 9.4 8.2 9.4 4.8 0 8-3.7 8-9.2zm9-10.4h1.5l13.2 18.8v-18.8h1.2v20.4h-1.4l-13.3-18.9v18.9h-1.2zm23.4 19.2l0.4-1c2.1 0.9 4.4 1.4 6.4 1.4 3.6 0 5.8-1.7 5.8-4.3 0-6.1-12.3-3.2-12.3-10.2 0-3.3 2.8-5.4 7.2-5.4 1.9 0 3.8 0.4 5.4 1.1l-0.4 1c-1.6-0.7-3.4-1.1-5.2-1.1-3.7 0-5.8 1.5-5.8 4.1 0 6.1 12.3 3.1 12.3 10.1 0 3.4-2.8 5.6-7.2 5.6-2.1 0.2-4.4-0.3-6.6-1.3z"/>
			</g>
		</g>
	</g>
</svg>